<svg xmlns="http://www.w3.org/2000/svg" viewBox="0 0 24 24" fill="none" stroke="#FF9900" stroke-width="2" stroke-linecap="round" stroke-linejoin="round">
  <circle cx="13.5" cy="6.5" r="1.5" fill="#FF9900"/>
  <circle cx="17.5" cy="10.5" r="1.5" fill="#FF9900"/>
  <circle cx="8.5" cy="7.5" r="1.5" fill="#FF9900"/>
  <circle cx="6.5" cy="12.5" r="1.5" fill="#FF9900"/>
  <path d="M12 2C6.49 2 2 6.49 2 12s4.49 10 10 10c1.38 0 2.5-1.12 2.5-2.5 0-.61-.23-1.2-.64-1.67-.08-.1-.13-.21-.13-.33 0-.28.22-.5.5-.5H16c3.31 0 6-2.69 6-6 0-4.96-4.49-9-10-9z"/>
</svg>
